<?xml version="1.0" encoding="utf-8"?>
<!DOCTYPE svg PUBLIC "-//W3C//DTD SVG 1.1//EN" "http://www.w3.org/Graphics/SVG/1.1/DTD/svg11.dtd">
<svg style="width:308px;height:308px;" version="1.1" id="图形" xmlns="http://www.w3.org/2000/svg" xmlns:xlink="http://www.w3.org/1999/xlink" x="0px" y="0px" width="1024px" height="1024px" viewBox="0 0 1024 1024" enable-background="new 0 0 1024 1024" xml:space="preserve">
  <path class="svgpath" data-index="path_0" fill="#33475f" d="M447.325002 129.919978c-178.868807 0-323.872319 145.003512-323.872319 323.874365s145.003512 323.874365 323.872319 323.874365c178.870854 0 323.874365-145.003512 323.874365-323.874365S626.195855 129.919978 447.325002 129.919978zM447.325002 713.712071c-143.31915 0-259.915681-116.598578-259.915681-259.917728s116.596532-259.917728 259.915681-259.917728 259.917728 116.598578 259.917728 259.917728S590.643128 713.712071 447.325002 713.712071z" />
<path class="svgpath" data-index="path_1" fill="#33475f" d="M891.573945 840.061734 748.236376 696.699606c-13.43601 16.625656-28.371164 31.91385-44.338834 46.099944l142.458549 142.481062c6.246261 6.246261 14.427594 9.368368 22.60995 9.368368s16.363689-3.123131 22.60995-9.368368C904.065444 872.789113 904.065444 852.553233 891.573945 840.061734z" />

</svg>
